<svg xmlns="http://www.w3.org/2000/svg" width="16" height="16"><path d="M11.182.008l-.776.138L8.857 1.18l-.848 1.679-.03.837.888-.112 1.587-1.146.735-1.705-.007-.725m3.314 11.733l-1.154-.926-.725-1.051-.234-1.444.352-1.36.568-.863.778-.631-1.254-1.157-1.563-.434-1.254.116-1.968.607-2.267-.665-1.824.328-.976.636-1.098 1.601-.369 2.562.303 1.998 1.273 2.796 1.659 1.899.807.24 1.036-.173 1.766-.472 1.782.539 1.652-.105.979-.825 1.259-1.933.473-1.282M11.182.008l-.776.138L8.857 1.18l-.848 1.679-.03.837.888-.112 1.587-1.146.735-1.705-.007-.725m3.314 11.733l-1.154-.926-.725-1.051-.234-1.444.352-1.36.568-.863.778-.631-1.254-1.157-1.563-.434-1.254.116-1.968.607-2.267-.665-1.824.328-.976.636-1.098 1.601-.369 2.562.303 1.998 1.273 2.796 1.659 1.899.807.24 1.036-.173 1.766-.472 1.782.539 1.652-.105.979-.825 1.259-1.933.473-1.282"/></svg>
