<svg xmlns="http://www.w3.org/2000/svg" width="16" height="16"><path d="M7.752.066l.686.1.635.372 2.925 1.671.26.645-.008.739v3.045l3.498 2 .26.644-.008.738v3.336l-.432.546-.646.36-2.925 1.672-.686-.1-.635-.372L8 13.933l-3.502 2.001-.686-.1-.635-.372-2.925-1.671-.26-.645.008-.739V9.071l.432-.546.645-.36L3.75 6.638V2.643l.432-.546.645-.36L7.752.066h0M4.25 7.504L1.508 9.071l2.742 1.567 2.742-1.567L4.25 7.504h0M7.5 9.933l-2.75 1.571v3.134l2.75-1.571V9.933h0m1 3.134l2.75 1.571v-3.134L8.5 9.933v3.134h0m.508-3.996l2.742 1.567 2.742-1.567-2.742-1.567-2.742 1.567h0m2.242-2.433V3.504L8.5 5.076V8.21l2.75-1.572h0M7.5 8.21V5.076L4.75 3.504v3.134L7.5 8.21h0M5.258 2.643L8 4.21l2.742-1.567L8 1.076 5.258 2.643h0M15 9.933l-2.75 1.571v3.134L15 13.067V9.933h0M3.75 14.638v-3.134L1 9.933v3.134l2.75 1.571"/></svg>
