<svg xmlns="http://www.w3.org/2000/svg" width="16" height="16"><path d="M3.051 3.26l.05-.38.304-.233 1.932-.518.395.06.225.33L8 2.402l2.12.126.223-.337.399-.062 1.932.518.332.289-.026.44.373.297 1.095 1.772.805 2.466.364 2.606-.328 2.21-1.445.83-1.513-.773-.739-.808-.368-.423-1.275-1.065L8 10.026l-1.949.462-1.275 1.065-.368.423-.739.808-1.513.773-1.445-.83-.329-2.21.365-2.606.805-2.466 1.094-1.772.433-.335-.028-.079v.001m2.036.412l-1.733.708-.885 1.465-.748 2.295-.339 2.406.243 1.776.426.24.929-.502.615-.674.44-.504 1.534-1.27L8 9.027l2.431.585 1.534 1.27.44.504.615.674.929.503.426-.241.243-1.776-.339-2.406-.748-2.295-.885-1.465-1.733-.708L8 3.402l-2.913.27M11.5 6.027l-.25.433h-.5l-.25-.433.25-.433h.5l.25.433m-1.5 1.5l.433-.25v-.5L10 6.527l-.433.25v.5l.433.25m2.5-.5l-.25.433h-.5l-.25-.433.25-.433h.5l.25.433m-1.5 1.5l.433-.25v-.5L11 7.527l-.433.25v.5l.433.25m-6.5-3h1v1h1v1h-1v1h-1v-1h-1v-1h1v-1"/></svg>
