<svg xmlns="http://www.w3.org/2000/svg" width="16" height="16"><path d="M1 8l.938 3.5L4.5 14.062 8 15l3.5-.938 2.562-2.562L15 8l-.938-3.5L11.5 1.938 8 1l-3.5.938L1.938 4.5 1 8m15 0l-1.072 4L12 14.928 8 16l-4-1.072L1.072 12 0 8l1.072-4L4 1.072 8 0l4 1.072L14.928 4 16 8M5.408 5.89l-.97.459-.348 1.294v.742l.344 1.279.974.448.834-.294.353-.756h1.147v.114l-.7 1.399-1.642.539-1.864-.727-.655-2.002v-.747l.658-2.013 1.861-.737 1.646.554.697 1.445v.11H6.595l-.356-.793-.83-.315v.001m5.404 0l-.971.459-.348 1.294v.742l.345 1.279.974.448.834-.294.352-.756h1.147v.114l-.7 1.399-1.642.539-1.864-.727-.654-2.002v-.747l.658-2.013 1.861-.737 1.646.554.696 1.445v.11h-1.147l-.356-.793-.83-.315v.001"/></svg>
