<svg xmlns="http://www.w3.org/2000/svg" width="16" height="16"><path d="M8.864 15.674l-1.288-.269-.62-1.151-.428-2.59-1.04-1.638-2.131-1.41-.931-.558L2 7V3l.437-1.059 1.011-.487L5.516.731l.048-.029.97-.484L8 0h3.5l1.934 1.064.254.913-.077.464.488.9.004 1.15.159.403.113.856-.113.856-.138.363.234 1.733-1.2 1.272-2.516.211-.443-.05-.062 4.51-1.012.964-.261.065M11.5 1H8l-1.14.163-.776.393-.04.025-2.49.868-.554.55V7l.62.65 2.614 1.709 1.238 1.977.482 2.85.667.518.262-.065.288-.255-.145-4.726.107-.497.488-.146h.003l.014.004.058.013 1.036.157 2.11-.163.57-.651-.266-1.021L12.793 7l.353-.354.154-.315.075-.581-.075-.581-.154-.315-.353-.354.353-.354.005-.488-.505-.804-.353-.354.353-.354.041-.17-.121-.415L11.5 1"/></svg>
