<svg xmlns="http://www.w3.org/2000/svg" width="16" height="16"><path d="M13.384 3.408l1.58 2.028.53 2.559-.415 2.807-1.422 2.462-2.19 1.814-2.72.863-3.6-.364-2.978-2.013-1.835-3.087-.171-3.587.97-2.455 1.871-1.846.119 1.624.343.308.668-.808 1.01-.624-.075 1.441.827 1.115 1.882 1.122-.688.722-.989.194-1.134.424-.677.946 1.362 2.161 2.5.61 1.914-.91.891-1.926-.333-1.844-1.326-1.317 1.87.454-1.922-1.684-2.548-.147-.599-.669.644-.371.794-.117.369-.631.925-1.531L10.191.002l2.033 2.857 1.947 2.915-.787-2.366"/></svg>
