<svg xmlns="http://www.w3.org/2000/svg" width="16" height="16"><path fill-rule="evenodd" d="M4.736 1.968l-.892 3.269-.014.058L1 6.5l2.05 1.061L8 8l4.95-.439L15 6.5l-2.83-1.205-.014-.058-.892-3.27-1.239-.734L8 1.5l-2.025-.267-1.239.735m.015 3.867l.091-.169.183-.055L8 5.754l2.975-.143.228.103.025.249-.203.146L8 6.254l-3.025-.145-.169-.091-.055-.183M3.5 10h2l.354.146L6 10.5v1l-.75 1.299h-1.5L3 11.5v-1l.146-.354L3.5 10m-1.5.5l.085-.5H2l-.433-.25v-.5L2 9h3.5l1.488 1.312h2.024L10.5 9H14l.433.25v.5L14 10h-.085l.085.5v1l-1.25 2.165h-2.5L9 11.5v-.14l-.21-.07H7.21l-.21.07v.14l-1.25 2.165h-2.5L2 11.5v-1m8.5-.5h2l.354.146.146.354v1l-.75 1.299h-1.5L10 11.5v-1l.146-.354L10.5 10"/></svg>
