<svg xmlns="http://www.w3.org/2000/svg" width="16" height="16"><path d="M4.355.522l.623.333.291.956L8 1l2.731.811.29-.956.365-.345.48.146.112.489-.41 1.352 1.06 1.611L13 6h.5l.354-.146L14 5.5V5l.25-.433h.5L15 5v.5l-.439 1.061L13.5 7H13v1h1.5l.433.25v.5L14.5 9H13v1h.5l1.061.439L15 11.5v.5l-.25.433h-.5L14 12v-.5l-.146-.354L13.5 11H13l-.67 2.5-1.83 1.83L8 16l-2.5-.67-1.83-1.83L3 11h-.5l-.354.146L2 11.5v.5l-.25.433h-.5L1 12v-.5l.439-1.061L2.5 10H3V9H1.5l-.433-.25v-.5L1.5 8H3V7h-.5l-1.061-.439L1 5.5V5l.25-.433h.5L2 5v.5l.146.354L2.5 6H3l.384-1.925 1.048-1.578-.41-1.352.333-.623M4 7v4l.265 1.435L5 13.647l1.11.88 1.391.443V7H4m4.5 0v7.97l1.391-.443 1.11-.88.734-1.211L12 11V7H8.5M12 6l-.349-1.633-.985-1.349-1.239-.756L8 2l-1.428.262-1.239.756-.985 1.349L4 6h8"/></svg>
