<svg xmlns="http://www.w3.org/2000/svg" width="16" height="16"><path d="M1.635 7.146l1.084-1.095 3.251-1.26v-.774L1.785 5.596 0 6.983l1.335 2.32 1.846 1.683 2.789.949v-.824l-2.04-.791-1.339-1.344-.956-1.83M5.97 9.475v.753L3.496 8.579l-.644-1.323.829-.675 2.289-.834v.828h-.004l-1.82.83.396.861L5.97 9.475M6 2l-.03 2.017L6.252 4l2.473.414 1.894 1.031 1.64 1.538-1.715 1.655-3.842 1.655-.732-.065v.883l.61.04 3.493-.873 2.901-2.07 1.819 1.104-3.875 1.88-4.298.777-.65-.034V14H16l.03-12H6m-.03 3.747v-.956l.282-.015 3.147 1.093 1.185 1.155-1.175 1.287-2.666 1.287-.773-.123v-2.9l1.835 1.593L9.167 7.02l-.707-.652-1.963-.652-.527.031"/></svg>
