<svg xmlns="http://www.w3.org/2000/svg" width="16" height="16"><path d="M15.858 11.451l-1.079.676-5.696 2.046v-1.509l4.192-1.493.405-.285-.243-.253-1.56.08-2.794.984v-1.566l.161-.054 1.942-.412 3.616.43 1.106.676-.05.68M9.625 8.883v-3.86l-.095-.62-.413-.368-.386.116-.142.534v9.664l-2.606-.827V2l3.59.985 2.305 1.4.65 2.425-.225 1.308-.617.799-.922.264-1.139-.298v.001m-8.424 3.625l-1.137-.736.24-.787 1.436-.69 3.737-1.33v1.515l-2.69.963-.403.285.242.253 1.56-.08 1.29-.469v1.356l-.257.043-2.029.082-1.989-.405"/></svg>
