<svg xmlns="http://www.w3.org/2000/svg" width="16" height="16"><path d="M16 8A8 8 0 1 1 0 8a8 8 0 0 1 8-8 8 8 0 0 1 8 8m-3.828-1.165a1.17 1.17 0 0 0-.812.325c-.801-.573-1.9-.945-3.121-.993l.534-2.501 1.738.372a.83.83 0 1 0 .83-.869.83.83 0 0 0-.744.468l-1.938-.41c-.112-.025-.221.049-.239.162l-.592 2.788c-1.24.038-2.358.41-3.17.992-1.274-1.213-2.963 1.148-1.288 1.9-.27 1.531 1.391 3.609 4.64 3.609 3.199 0 4.903-2.013 4.639-3.609 1.121-.506.78-2.234-.477-2.234M6.167 8a.83.83 0 0 0-.83.83c0 .459.372.84.83.831 1.07-.037 1.07-1.624 0-1.661m1.843 3.647c1.304 0 2.278-.578 1.976-.917-.273-.281-.397.487-1.976.487-1.571 0-1.705-.768-1.977-.487-.326.316.664.916 1.977.916zm.992-2.807a.83.83 0 0 0 .831.83c.458 0 .83-.381.83-.83-.052-1.054-1.608-1.054-1.66 0z"/></svg>
