<svg xmlns="http://www.w3.org/2000/svg" width="16" height="16"><path d="M6.08.234l.179.727-2.01.832-.383-.643L6.079.234h.001m3.84 0L9.742.96l2.01.832.388-.643L9.92.234m-8.77 3.63L.234 6.079l.727.18.832-2.01-.643-.386v.001M.75 8l.081-1.086-.74-.114v2.398l.74-.112m11.303 5.762l-.384-.64-2.007.831.18.728 2.211-.919M15.251 8l-.082 1.086.74.112V6.8l-.74.114m.598 3.004l-.728-.18-.832 2.012.643.387.917-2.219m-6.68 5.25H6.914l-.112.742h2.396l-.112-.741.001-.001m4.75-2.868L12.3 13.834l.446.605 1.695-1.689-.604-.45M12.3 2.163L13.837 3.7l.604-.45-1.69-1.691-.451.604M2.163 3.7L3.7 2.163l-.45-.604-1.691 1.69.604.45V3.7m12.688.163l-.644.387.832 2.007.728-.18-.916-2.214M6.913.831h2.172l.112-.74H6.801l.112.74M2.547 14.64L1 15l.36-1.549-.729-.17-.361 1.548.9.902 1.548-.357-.171-.734M.786 12.612l.732.168.25-1.073L.96 9.74l-.727.18.736 1.902-.184.79h.001m3.5 1.623l-1.073.25.17.731.79-.184 1.902.737.18-.728-1.962-.811-.007.005M8 1.5c-5.228.002-8.133 5.772-5.5 9.957l-.625 2.668L4.54 13.5c3.032 1.82 6.962.883 8.847-2.109C16.114 7.063 12.99 1.495 8 1.5"/></svg>
