<svg xmlns="http://www.w3.org/2000/svg" width="16" height="16"><path d="M15.943 11.526l-.564-.599-.123-.064-.219-.111-1.746-1.498-.3-.531-.008-.207.097-.1.352-.231.371-.245.66-.702.069-1.16-1.329-.872-.487.065-.035-1.139-.398-1.598-.679-1.012-1.095-.881L7.999 0 5.494.641l-1.097.883-.678 1.012-.399 1.598-.036 1.138-.487-.065-1.328.873.067 1.161.66.701.371.246.339.221.109.11-.012.217-.295.52-1.696 1.472-.955.8.28 1.075.409.31 1 .4.202.09.259.488.296.3 1.095.258 1.217.18.618.328 2.566.802 2.576-.806.609-.321 1.218-.181 1.095-.258.336-.368.217-.42.19-.087 1.014-.404.429-.336.004-.005.256-1.047m-1.121.602l-1.493.565-.34.76-2.085.326-1.199.646-1.704.436-1.699-.436-1.204-.648-2.084-.325-.341-.761-1.492-.563-.24-.294.196-.166 2.368-1.992.522-1.196-.138-.466-1.18-.802-.402-.812.49-.295.197.022 1.002.338.082.011.152-.195-.019-2.066.859-2.097.868-.696L7.999.898l2.063.522.868.693.859 2.098-.019 2.065.152.195.082-.01 1.002-.338.197-.023.49.295-.401.812-1.18.802-.139.466.523 1.198 2.367 1.991.198.169-.239.295"/></svg>
