<svg xmlns="http://www.w3.org/2000/svg" width="16" height="16"><path d="M8 0L5.913.277 4 1.072 2.355 2.331 1.072 4 .268 5.946 0 8l.268 2.054L1.072 12l1.283 1.669L4 14.928l1.913.795L8 16l2.087-.277L12 14.928l1.645-1.259L14.928 12l.804-1.946L16 8l-.268-2.054L14.928 4l-1.283-1.669L12 1.072 10.087.277 8 0m3.669 11.538l-.686.165-3.174-1.054-3.854.284-.477-.147-.111-.486.366-.339 4.238-.298 3.532 1.19.166.686m.979-2.178l-.858.205-3.838-1.251-4.134.319-.743-.427.381-.767 2.282-.419 2.374.051 2.292.501 2.037.93.206.858m.084-2.268l-2.194-.896-2.497-.422-4.603.392-.933-.499.499-.933 2.414-.442 2.778-.005 2.805.486 2.495 1.031.261 1.025-1.024.261"/></svg>
