<svg xmlns="http://www.w3.org/2000/svg" width="16" height="16"><path d="M4.406 3.342L8 2l3.501 1.322 1.665 3.257 2.014 1.068.82 2.126-.976 2.287-2.337.94H3.781l-2.668-1.073L0 9.318.843 6.999l2.1-1.274 1.464-2.383m.653.757L3.906 6.155v.448l-.445.049-1.754.878L1 9.318l.809 1.891L3.781 12h8.906l1.641-.658L15 9.773l-.672-1.57-1.641-.658h-.5v-.5l-1.22-2.855L8 3 5.059 4.1v-.001m2.587 1.047L8 4.999l.354.147 2 2 .13.484-.354.354-.484-.13L8.5 6.707V10.5l-.25.433h-.5L7.5 10.5V6.707L6.354 7.854h-.708v-.708l2-2"/></svg>
