<svg xmlns="http://www.w3.org/2000/svg" width="16" height="16"><path d="M0 8a8.01 8.01 0 0 1 8-8 8.01 8.01 0 0 1 8 8c0 4.411-3.59 8-8 8s-8-3.589-8-8m.367 0c0 4.209 3.424 7.633 7.633 7.633S15.632 12.209 15.632 8 12.208.367 8 .367.367 3.79.367 8m5.694 6.583L8.121 8.6l2.158 5.874c-1.457.479-2.743.303-4.218.109m7.96-9.876l.047.706c-.496 2.943-1.647 5.709-2.618 8.518 3.361-2.213 3.651-5.792 2.572-9.224h-.001m-1.388 2.946c-.397-1.61-2.124-3.927.001-4.714C9.076.184 5.446 1.413 2.266 4.23c.757.022 1.514-.042 2.27-.078.176.548.089.561-.741.63l2.5 7.434 1.5-4.506-1.07-2.929-.719-.065-.077-.478 3.758-.088c.175.549.088.562-.742.631l2.48 7.377c.491-1.48.867-2.986 1.207-4.506l.001.001M1.137 8c.017 1.355.507 2.44 1.046 3.644.731 1.14 1.728 1.795 2.822 2.532L1.73 5.206"/></svg>
