<svg xmlns="http://www.w3.org/2000/svg" width="16" height="16"><path d="M2.204 11.078l.914-.226.492-.511h.059V11h1.216V7.519l-.166-.833-.453-.551-.671-.305-.82-.094-.916.12-.636.328-.381.487-.151.598h1.216l.246-.397.594-.155.63.19.234.581v.464H2.346l-.795.111-.578.313-.353.487-.12.633.124.659.349.498.538.315.693.11m.42-.947l-.587-.178-.187-.224-.07-.316.206-.49.634-.194h.991v.538l-.078.347-.212.273-.696.243m5.593.937l.817-.158.613-.456.385-.727.133-.969v-.702l-.132-.968-.381-.725-.607-.455-.808-.158-.964.241-.333.28-.202.368h-.063V3.983h-1.29V11h1.27v-.791h.064l.557.63.942.231v-.001m-.43-1.025l-.452-.093-.352-.261-.228-.404-.081-.521V8.12l.076-.558.219-.423.346-.268.458-.094.457.095.337.276.209.445.072.6v.45l-.071.594-.206.44-.333.273-.45.094v-.001m2.834-1.328l.158.992.456.749.725.473.966.165.932-.137.671-.375.409-.56.146-.691h-1.186l-.256.525-.677.207-.442-.093-.33-.268-.206-.425-.071-.566v-.625l.069-.549.201-.419.328-.267.448-.094.406.072.277.184.236.52h1.187l-.152-.698-.418-.575-.667-.39-.902-.144-.955.166-.726.471-.461.737-.162.964v.65"/></svg>
