<svg xmlns="http://www.w3.org/2000/svg" width="16" height="16"><path d="M1.226 10.88H0l2.056-6.26h1.42l2.047 6.26h-1.29l-.48-1.61H1.707l-.48 1.61h-.001M2.76 5.818h-.054l-.75 2.532H3.51l-.75-2.532m3.217 5.062V4.62h2.56l.742.106.57.305.366.484.129.645-.079.514-.219.4-.752.457v.055l.524.138.435.301.297.464.11.625-.159.748-.442.555-.675.345-.858.119-2.55-.001M7.18 5.55v1.675h.8l.89-.222.212-.268.069-.363-.235-.602-.663-.22H7.18m0 2.537V9.95h.903l.611-.058.417-.173.238-.284.076-.394-.071-.398-.209-.3-.343-.189-.472-.066H7.18m5.089-.711v.775l.09.769.262.566.423.349.572.119.48-.081.372-.226.249-.347.111-.442H16v.12l-.21.82-.505.639-.746.415-.932.148-1.097-.195-.807-.563-.498-.896-.17-1.194v-.78l.172-1.197.5-.904.808-.571 1.093-.199.935.152.747.427.504.659.207.848v.115h-1.172l-.113-.461-.251-.366-.372-.242-.476-.087-.569.123-.423.357-.264.575-.091.775"/></svg>
