<svg xmlns="http://www.w3.org/2000/svg" width="16" height="16"><path d="M13.828 11.943l1.645.204-.233 1.533-.762 1.115-.23-.137.455-1.963-1.625-.13-.09.009-.233.024-.274-.032 1.347-.623m-3.015.025l.5-.05.005.005 1.623-1.405.006-.563-.125-.17-.466-.738-.207-1.053v-3.3l.001-.335-.108-1.795-.825-1.51-1.512-.82L8.03 0 5.086.686l-1.133.997-.657 1.557.316.443 2.054.22.366-.387.615-.957 1.088-.314 1.188.55.257 1.376v.432l-.621.065-3.36.67-1.627 1.3-.632 2.16.245 1.443.672 1.031 1.006.618 1.246.206 1.874-.325 1.615-1.215.167.246 1.047 1.166h.002M6.03 8.431l.277-1.094.723-.648L9.177 6.3v.57l-.396 2.133-.635.704-.83.257-.947-.424-.338-1.109M.435 12.174l2.257 1.266 2.888.991 3.612.112 4.426-1.372.308.04-.109.391-1.825 1.333-1.907.741L7.57 16l-2.622-.416-2.19-.994-2.664-2.205-.052-.29.251-.008.142.087"/></svg>
