<svg xmlns="http://www.w3.org/2000/svg" width="16" height="16"><path d="M10.213 1.471l.691-1.26-.048-.192-.195.058-.7 1.27L8.005.941l-1.956.404-.7-1.27L5.154.02l-.049.193.691 1.259-1.673 1.476L3.5 5.02h9l-.623-2.072-1.664-1.476v-.001M6.22 3.303l-.267.11-.263-.11-.107-.264.107-.265.263-.11.267.11.112.265-.112.264m4.101 0l-.262.11-.268-.11-.112-.264.112-.265.268-.11.262.11.107.265-.107.264M3.5 11.77l.311.75.76.307h.758l.01 2.182.292.703.7.288.71-.288.292-.703v-2.182h1.343v2.182l.292.703.71.288.71-.288.292-.703v-2.182h.76l.749-.308.311-.75V5.365h-9v6.405m10.495-6.587l-.702.278-.293.685v4.063l.293.69.702.284.712-.284.293-.69V6.146l-.293-.685-.712-.278m-12.702.283l.712-.283.702.283.293.68v4.063l-.288.69-.707.284-.712-.284-.293-.69V6.146l.293-.68"/></svg>
