<svg xmlns="http://www.w3.org/2000/svg" width="16" height="16"><path fill-rule="evenodd" d="M8.49 10.92l3.249-2.729 1.743-2.477L14 3.575l-.429-1.713L12.476.659l-1.48-.604-1.585.08L8 .986 6.589.135 5.003.055l-1.48.604-1.095 1.202L2 3.575l.517 2.139L4.26 8.191l3.25 2.729-.234.468.112.336.336-.112.067.078.024.292.448 1.102.013.028.05 1.246-.534 1.003.069.347.347-.069.004-.007.588-1.115.13-.777-.206-.852-.419-1.004-.037-.289.342.131.114-.338-.235-.468h.001M7.116 1.399l-1.008-.297-1.128.038-1.032.391-.719.765-.197.975.14.971.299.529.279-.349.387-.895.708-.75.995-.527 1.246-.226"/></svg>
