<svg xmlns="http://www.w3.org/2000/svg" width="16" height="16"><path d="M8 2.42l-.717-.737-2.141-.637-1.869 1.357.236 3.062L8 10.042l4.491-4.577.236-3.061-1.869-1.358-2.141.637L8 2.42m-.49 8.5L4.293 8.225 2.546 5.774l-.545-2.123.387-1.712L3.437.72 4.88.079l1.567.018 1.422.761.175.066.175-.109L9.638.055l1.557-.013 1.429.649 1.033 1.227.37 1.72-.56 2.13-1.757 2.455L8.49 10.92l.235.468.033.241-.174.055-.278.201.419 1.003.206.852-.13.777-.588 1.115-.004.007-.347.069-.069-.347.533-1.003-.049-1.246-.013-.028-.448-1.102-.07-.262-.426-.172.192-.628H7.51"/></svg>
