<svg xmlns="http://www.w3.org/2000/svg" width="16" height="16"><path d="M8 0a7.96 7.96 0 0 0-4.075 1.114q-.245.102-.437.28A8 8 0 1 0 8 0m3.25 14.201l-1.225-.124-.905.834L8 15l-3.845-1.15.827-1.574-1.257-1.258-1.574.827L1 8l.561-2.751L3.09 3.011l1.366.988 1.422-.906-.319-1.655L8 1l3.845 1.15-.827 1.574 1.258 1.257 1.574-.827L15 8l-.214 1.727-.835-.658-1.061.06-.755.748-.069 1.061.651.84 1.044.198-2.51 2.224h-.001M6 7.5l-.75 1.299h-1.5L3 7.5l.75-1.299h1.5L6 7.5m4.5.5l1.299-.75v-1.5L10.5 5l-1.299.75v1.5L10.5 8m-.5 3.5l-.75 1.299h-1.5L7 11.5l.75-1.299h1.5L10 11.5"/></svg>
