<svg xmlns="http://www.w3.org/2000/svg" width="16" height="16"><path d="M13.545 2.907l-3.257-1.011-.052.025-.406.833H6.172l-.412-.833-.052-.025-3.257 1.011-.021.018L.366 7.521l-.3 4.511.021.037 3.995 2.02.056-.019.818-1.329-.01-.059-.018-.011-1.248-.595-.02-.066.015-.019.248-.195.051-.007 4.033.897 4.008-.897.053.007.248.195.022.044-.026.041-1.249.594-.03.03.003.041.817 1.329.056.019 4.001-2.02.021-.037-.38-4.851-1.986-4.255-.02-.019m-8.198 7.307l-1.015-.473-.423-1.139.419-1.139 1.019-.474 1.026.475.412 1.138-.419 1.139-1.019.473m5.316 0l-1.014-.473-.424-1.139.419-1.139 1.019-.474 1.027.475.412 1.138-.416 1.139-1.022.473"/></svg>
