<svg xmlns="http://www.w3.org/2000/svg" width="16" height="16"><path d="M10.228 15.667l.303-.086.082-.025 2.362-1.295 1.8-2.005-.033-.301-.298-.049-.663.294-2.243.4-2.112-.358-1.763-.984-1.209-1.474-.449-1.828.046-.399-1.323 2.864.863 3.034.003.005 1.158 1.121h.003l.144.09 1.39.735 1.938.261M.01 7.753l.753 3.641 2.641 3.144 3.854 1.42-.785-.377h-.01l-.12-.075-1.56-1.463-.962-2.196.055-2.397L4.939 7.3 6.81 5.8l.01-.004.025-.012 1.167-.285.384.033-.993-.698-.01-.005L5 4.263 1.652 5.312.517 6.425.01 7.753m10.263 7.912l.265-.084-.307.086.042-.002m-.791-6.324l-.17.309.3.456 1.598.5.994.038h.002l1.894-.519 1.389-1.4L16 6.819l-.666-2.664-.04-.08-1.264-1.729-1.717-1.279L8 0 5.561.38 3.4 1.455l-1.743 1.67L.473 5.29l1.963-1.48L5 3.262l1.977.34 1.59.966 1.059 1.512.385 1.978h-.004v.002l-.487 1.244.006-.006-.043.042"/></svg>
