<svg xmlns="http://www.w3.org/2000/svg" width="16" height="16"><path d="M13.106 7.222l-.402-2.038-1.127-1.591-1.733-1.034-2.22-.369-2.295.415-1.784 1.167-1.156 1.801-.411 2.319.404 2.366 1.154 1.798 1.815 1.143 2.388.401 2.304-.335v-.862l-2.29.328-1.986-.339-1.517-.966-.969-1.512-.341-1.981.342-1.962.953-1.545L5.69 3.415l1.845-.363 1.874.302 1.456.85.943 1.313.335 1.691-.385 2.015-1.031.754-.571-.2-.201-.56V5.206H8.923v.834h-.11l-.63-.705-.97-.259-1.714.789-.664 2.034.656 2.104 1.723.802 1.044-.282.665-.805h.11l.482.825 1.021.323 1.065-.256.81-.73.695-2.657v-.001m-7.177.704l.385-1.402 1.071-.505 1.111.515.413 1.392-.418 1.395-1.12.519-1.057-.511-.385-1.403"/></svg>
