<svg xmlns="http://www.w3.org/2000/svg" width="16" height="16"><path d="M8-.002C3.58-.001-.002 3.604-.002 8.051c0 4.017 2.926 7.347 6.75 7.951v-5.625H4.719V8.051H6.75V6.275c0-2.017 1.194-3.131 3.021-3.131.876 0 1.791.156 1.791.156v1.98l-.813.238c-.953.279-1.148.566-1.259 1.193l-.238 1.337h2.217l-.354 2.326H9.25V16c3.824-.604 6.75-3.934 6.75-7.951 0-4.446-3.582-8.051-8-8.051zm0 0L4.885.631 2.342 2.357.627 4.917-.002 8.051l.517 2.852 1.424 2.403L4.08 15.07l2.668.932v-5.625H4.719V8.051H6.75V6.275l.215-1.34.61-.982.953-.604 1.243-.206 1.791.156v1.98h-1.008l-1.024.39-.279.868v1.51h2.217l-.354 2.326H9.25V16l2.668-.932 2.141-1.763 1.424-2.403L16 8.049l-.629-3.134-1.715-2.559L11.114.631 8-.002"/></svg>
