<svg xmlns="http://www.w3.org/2000/svg" width="16" height="16"><path d="M8 0a8 8 0 0 0-8 8c0 3.54 2.568 6.57 5.748 7.63.336-.517.266-1.032.262-1.91-2.01.37-2.53-.49-2.69-.94-.508-1.299-1.919-1.644-.83-1.66 1.32-.021 1.434 2.451 3.56 1.48.07-.52.28-.87.51-1.07-4.637-.521-3.969-4.839-2.82-6.1-.08-.2-.36-1.02.08-2.12 0 0 .67-.21 2.2.82a7.55 7.55 0 0 1 4 0c1.53-1.04 2.2-.82 2.2-.82.44 1.1.16 1.92.08 2.12 1.141 1.253 1.834 5.576-2.83 6.1.29.25.54.73.54 1.48L10 15.289c0 1.239 6-1.457 6-7.289a8 8 0 0 0-8-8"/></svg>
