<svg xmlns="http://www.w3.org/2000/svg" width="16" height="16"><path d="M8 0L4.703.048C3.85.088 3.269.222 2.76.42a3.9 3.9 0 0 0-1.417.923A3.9 3.9 0 0 0 .42 2.76C.222 3.268.087 3.85.048 4.7L0 8.001l.048 3.297c.04.852.174 1.433.372 1.942a3.93 3.93 0 0 0 .923 1.417c.444.445.89.719 1.416.923.51.198 1.09.333 1.942.372L8 16l3.298-.048c.851-.04 1.434-.174 1.943-.372a3.9 3.9 0 0 0 1.416-.923 3.93 3.93 0 0 0 .923-1.417c.197-.509.332-1.09.372-1.942L16 8l-.048-3.299c-.04-.851-.175-1.433-.372-1.941a3.9 3.9 0 0 0-.923-1.417A3.9 3.9 0 0 0 13.24.42c-.51-.198-1.092-.333-1.943-.372L7.998 0zm-.717 1.442h.718l3.232.046 1.486.275.92.599.598.92.275 1.485.047 3.231-.047 3.232-.275 1.485-.599.919-.92.598-1.485.276-3.232.047-3.233-.047-1.485-.276-.92-.598-.6-.92-.275-1.485-.046-3.233.046-3.231.276-1.486.599-.92.92-.598 1.485-.276 2.515-.045v.002m4.988 1.328a.96.96 0 1 0 0 1.92.96.96 0 0 0 0-1.92m-4.27 1.122a4.109 4.109 0 1 0 0 8.217 4.109 4.109 0 0 0 0-8.217m0 1.441a2.667 2.667 0 1 1 0 5.334 2.667 2.667 0 0 1 0-5.334"/></svg>
