<svg xmlns="http://www.w3.org/2000/svg" width="16" height="16"><path fill-rule="evenodd" d="M10.995 0l.573.001.483.007 1.051.093.999.329 1.47 1.468.328 1 .093 1.051.007.483.001.573v5.99l-.001.573-.008.483-.092 1.05-.33 1-1.468 1.468-1 .33-1.05.092-.483.008-.573.001h-5.99l-.573-.001-.483-.008-1.052-.092-.998-.33-1.47-1.468-.328-1-.093-1.05L0 11.568V5.005l.001-.573.007-.483.093-1.05.329-1L1.9.431 2.896.1 3.95.008 4.432 0h.573 5.99m-.107 2.518l-4.756.959H6.13l-.296.133-.16.31-.01.16v5.952l-.106.39-.347.177-.31.063-.881.223-.519.333-.332.995.395.792.578.296.858-.043.555-.205.438-.405.233-.55.052-.588V6.347l.302-.404 4.138-.833.378.294v3.524L11 9.324l-.348.178-.31.062-.88.223-.52.334-.34.994.404.792.577.294.858-.044.556-.202.438-.405.233-.549.044-.589V2.865l-.4-.42-.424.073"/></svg>
