<svg xmlns="http://www.w3.org/2000/svg" width="16" height="16"><path d="M8.864.046L7.576.315l-.619 1.151-.428 2.59-1.04 1.639-2.131 1.41-.931.557L2 8.72v4.001l.437 1.059 1.011.486 2.068.723.048.03.97.484L8 15.72h3.5l1.934-1.064.254-.912-.077-.464.488-.901.004-1.149.159-.403.113-.857-.113-.856-.138-.362.234-1.734-1.2-1.272-2.516-.211-.443.05-.062-4.509L9.125.111 8.864.046M11.5 14.721H8l-1.14-.164-.776-.393-.04-.024-2.49-.868-.554-.55V8.72l.62-.65 2.614-1.708 1.238-1.978.482-2.85.667-.518.262.066.288.255-.145 4.725.107.498.488.146.003-.001.014-.003.058-.014 1.036-.157 2.11.164.57.65-.266 1.022-.353.353.353.354.154.315.075.581-.075.582-.154.315-.353.353.353.354.005.488-.505.805-.353.353.353.354.041.17-.121.416-1.066.56v.001"/></svg>
