<svg xmlns="http://www.w3.org/2000/svg" width="16" height="16"><path d="M8.446.019l1.217.527.708 1.113.501 2.423.235.952 2.074 3.54.318 1.69-.002 1.019.969 1.808.03.702-2.86 2.047-1.003-.047-1.079-.751H7.598l-2.082.72-3.604-.836-.324-1.417.097-1.075 1.18-1.094 1.199-2.99 1.851-3.473.167-3.264L7.148.424 8.446.019h0m2.596 10.866l-.773 2.34-.202 1.825 1.156.705 3.178-2.084-.74-1.824-.531-.486-1.465-.089-.623-.385m-7.204.03l-1.965 1.445-.136 2.022 2.051.824 1.419.327.803-.177.371-.628-.742-1.615-1.242-1.803-.556-.393M9.584 4.85l-1.354.751-1.042-.069-.702-.42-1.638 5.223-.098-1.626.369-1.221-.684 1.464.029 1.187.774 1.171.988.862.291.725-.252.613.681.558 1.638.184 1.447-.599.462-2.02.523-1.116.725-.287 1.067.443-.27-.52-.601-1.398-.347-.884-.233-.326-.053.005.61 1.645-.114.661-1.364-2.645-.316-.763M7.72 3.503l-1.393.853.654.962 1.405.109 1.204-.945-.406-.431M6.83 2.381l-.524.843.205.719.308-.879.306.218.097-.21-.125-.587m1.682-.257l-.626.499.043.395.186.123.337-.174.174.187.361.588-.024-.983-.454-.635m.441 2.135l-1.137.695-1.603-.453 1.29.507.883-.365M7.34 3.781l-.095.1m.677-.104h0"/></svg>
