<svg xmlns="http://www.w3.org/2000/svg" width="16" height="16"><path d="M11.19 12.195l2.669-.969 1.322-1.634.32-4.339-.357-2.165-.786-1.38-1.143-.943L8.027 0h-.05L2.79.765l-1.142.942-.785 1.38-.357 2.166-.002.662.011 2.091.738 4.746 1.132 1.768 1.91 1.056 3.709.408 2.847-.647-.06-1.317-2.767.36-2.063-.318-1.152-1.61-.033-.496 3.228.428 3.188-.189h-.001m1.613-2.47H11.13v-4.08l-.273-.97-.818-.325-.905.387-.302 1.154v2.233H7.168V5.89l-.302-1.154-.905-.386-.818.325-.273.97v4.079H3.197V5.522l.66-2.046 1.793-.764 1.933.983L8 4.39l.417-.695 1.934-.983 1.791.764.661 2.046v4.203"/></svg>
