<svg xmlns="http://www.w3.org/2000/svg" width="16" height="16"><path fill-rule="evenodd" d="M8.217 5.243l1.489-1.592L11.483 3l1.751.551 1.437 1.494 1.331 4.861-.714 2.721-2.043 1.004-1.967-.753-1.957-2.671-.667-1.123-.118-.197-.53-.877-1.178 2.08-2.098 2.867-1.825.674-2.134-.988L0 9.973l1.323-4.831 1.459-1.557L4.598 3l.924.122.913.407 1.782 1.714m1.516 2.224l-.727-1.133L9 6.326l1.192-1.466 1.18-.488 1.212.445.986 1.213.905 3.995-.296 1.384-.899.493-1.044-.55-1.566-2.32-.936-1.565M4.846 4.756l2.34 2.001L5.551 9.3l-1.516 2.099-1.065.504-.911-.493-.329-1.407.842-3.608 2.003-1.656.27.018"/></svg>
