<svg xmlns="http://www.w3.org/2000/svg" width="16" height="16"><path d="M14.949 6.547l-.348-3.273-1.888-1.677-2.512-.257L8.423.2 6.305.086l-1.891.948-1.158 1.753-1.563.679L.554 4.72.023 7.169l1.033 2.283.346 3.274 1.889 1.677 2.513.256 1.377.995 1.67.346 2.414-.774 1.487-2.03 1.563-.68 1.14-1.253.524-2.441-1.03-2.275m-6.097 8.406l-1.945-.694.096-.054 3.23-1.838.265-.455v-4.49l1.366.778.025.035v3.722l-.891 2.116-2.146.88m-6.53-2.75l-.36-2.01.095.057L5.29 12.09h.527l3.949-2.246v1.555l-.022.041-3.271 1.86-2.306.298-1.844-1.396m-.85-6.94L3.07 3.949v3.785l.262.451 3.93 2.237-1.366.779h-.048L2.585 9.342 1.173 7.528l.299-2.28.001.014m11.216 2.571L8.747 5.576l1.362-.776h.048l3.265 1.86 1.173 1.207.337 1.64-.607 1.56-1.36.997V8.279l-.276-.445m1.36-2.015l-.097-.057-3.226-1.855h-.53L6.249 6.153V4.598l.019-.04L9.533 2.7l1.649-.399 1.608.538 1.066 1.303.191 1.664.002.013M5.503 8.575L4.139 7.8l-.026-.037V4.049l.476-1.607 1.275-1.105 1.676-.258 1.558.668-.096.054-3.23 1.838-.265.455-.004 4.481m.742-1.577l1.758-1 1.762 1v2l-1.755 1-1.762-1-.003-2"/></svg>
