<svg xmlns="http://www.w3.org/2000/svg" width="16" height="16"><path d="M15 14l.878-.527.041-1.069-1.383-2.234-2.408-1.082-2.832.127-2.365 1.492-.888 2.623.575.588.862.082H15h0m-7.978-1l.791-1.785 2.135-1.129 2.453.08 1.752 1.016.839 1.817-7.97.002h0M11 7l1.291-.452.632-1.166-.138-1.319-1.02-.911-1.366-.077-1.03.835-.377 1.271.594 1.232.649.434L11 7m3-2l-.568 1.787-1.518 1.027-1.832.061-1.509-1.112-.591-1.779.624-1.723 1.446-1.126 1.875.012 1.498 1.091L14 5h0M6.936 9.28l-3.289-.15L.865 10.79.063 13.438l.603.52.855.042h3.696l-.048-2.191L6.28 9.879l.656-.599h0M4.92 10l-.96 3H1l1.015-1.983 2.041-.946L4.92 10h0M1.5 5.5l.568-1.787 1.518-1.027 1.832-.061 1.509 1.112.591 1.779-.624 1.723-1.446 1.126-1.875-.012-1.498-1.091L1.5 5.5h0m3-2l-1.291.452-.632 1.166.138 1.319 1.02.911 1.366.077 1.03-.835.377-1.271-.594-1.232-.649-.434L4.5 3.5"/></svg>
