<svg xmlns="http://www.w3.org/2000/svg" width="16" height="16"><path d="M8 16A8 8 0 1 0 8 0a8 8 0 0 0 0 16m.25-14.75v1.5l-.125.217h-.25L7.75 2.75v-1.5l.125-.217h.25l.125.217m0 12v1.5l-.125.216h-.25l-.125-.216v-1.5l.125-.216h.25l.125.216M4.5 1.938l.19-.025.152.116.75 1.3v.25l-.217.125-.217-.125-.75-1.3.092-.341m6 10.392l.341.092.75 1.299.011.258-.224.13-.219-.138-.75-1.3.091-.34v-.001M2.28 4.408l1.298.75.125.217-.125.217h-.25l-1.299-.75-.125-.217.125-.217h.25.001m10.392 6l1.299.75.125.217-.125.217h-.25l-1.3-.75-.092-.342.342-.092h.001M1 8l.073-.177.177-.073h1.5l.217.125v.25l-.217.125h-1.5l-.177-.073L1 8m12 0l.073-.177.177-.073h1.5l.216.125v.25l-.216.125h-1.5l-.177-.073L13 8M2.03 11.159l1.298-.75.329.098-.079.334-1.299.75-.329-.098.079-.334h.001m10.392-6l1.299-.75.251-.001.125.217-.126.217-1.3.75-.342-.092.092-.342.001.001M4.5 14.061l-.092-.341.75-1.3.217-.125.217.125v.25l-.75 1.3-.152.116-.19-.025m6-10.392l-.116-.152.025-.19.75-1.299.219-.138.224.129-.011.258-.75 1.3-.341.09v.001M6.494 1.415l.13.483-.064.242-.242.065-.177-.177-.13-.483.176-.306.306.177M9.86 13.972l.13.483-.177.306-.306-.176-.13-.483.176-.306.306.176M3.05 3.05l.177-.073.177.073.353.354-.01.343-.343.01-.354-.353-.073-.177.073-.177m9.193 9.193h.353l.354.353.065.242-.177.177-.242-.065-.353-.354v-.353M1.545 6.01l.483.13.177.177-.065.241-.242.064-.483-.13-.189-.176.067-.249.252-.057V6.01m12.557 3.365l.483.13.177.306-.307.176-.483-.13-.177-.177.065-.242.242-.064m-12.863.436l.176-.306.483-.13.242.064.065.242-.177.177-.483.13-.306-.177m12.557-3.365l.176-.306.483-.13.306.176-.176.307-.483.13-.306-.177M3.045 12.944l-.029-.376 3.898-5.592.062-.062 5.602-3.884.378.014.014.378-3.884 5.602-.062.062-5.592 3.898-.382-.034-.005-.006m3.143 1.817l-.176-.306.129-.483.177-.177.242.065.064.242-.13.483-.306.176M9.553 2.204l-.177-.306.13-.483.306-.177.177.307-.13.483-.306.176"/></svg>
