<svg xmlns="http://www.w3.org/2000/svg" width="16" height="16"><path d="M3.362 10.11l-.494 1.188-1.187.493-1.187-.493L0 10.111.494 8.924 1.68 8.43h1.682v1.68m.846 0l.494-1.186 1.187-.494 1.187.494.494 1.186v4.21l-.494 1.187L5.89 16l-1.188-.493-.494-1.187v-4.21M5.89 3.362l-1.188-.494-.494-1.187.494-1.187L5.89 0l1.187.494.493 1.187v1.682H5.89m0 .846l1.187.494.494 1.187-.494 1.187-1.187.494H1.68L.494 7.077 0 5.89.494 4.702l1.187-.494h4.21m6.749 1.682l.493-1.188 1.187-.494 1.187.494L16 5.889l-.493 1.187-1.187.494h-1.681V5.89m-.848 0l-.493 1.187-1.187.494-1.187-.493L8.43 5.89V1.68L8.924.494 10.11 0l1.188.494.493 1.187v4.21m-1.681 6.748l1.188.494.494 1.187-.494 1.187L10.11 16l-1.188-.493-.493-1.187v-1.682h1.68.001m0-.847l-1.186-.493-.494-1.187.494-1.187 1.186-.494h4.21l1.187.494L16 10.11l-.493 1.188-1.187.493h-4.21"/></svg>
