<svg xmlns="http://www.w3.org/2000/svg" width="16" height="16"><path d="M4.868 12.683l1.289-.027.906-.916.012-1.289-.889-.933-1.263-.02 1.023.424.766 1.002-.485 1.165-1.251.163-.99-.41.882.84v.001m3.726-6.687l.594 1.434 1.433.595 1.433-.595.594-1.434-.595-1.432-1.432-.595-1.432.595-.595 1.432m2.03-1.527l1.319.763-.001 1.524-1.32.761-1.319-.763.001-1.524 1.32-.761M.329 10.333l1.136 2.306 1.76 1.79 2.227 1.159L7.99 16l3.118-.629 2.546-1.715 1.717-2.543L16 8l-.629-3.114-1.716-2.543L11.108.629 7.991 0 5.004.575 2.521 2.157.775 4.527 0 7.468l.003.006 4.304 1.769L5.62 8.88l1.96-2.844-.001-.04.24-1.184.652-.967.967-.652 1.184-.24 1.184.24.967.652.652.967.24 1.184-.239 1.18-.677.995-1.01.655-1.185.213-2.804 2-.242 1.068-.722.822-1.027.378-1.083-.158-.847-.624-.465-.944-3.032-1.249"/></svg>
