<svg xmlns="http://www.w3.org/2000/svg" width="16" height="16"><path d="M3.425.053l-2.08 1.029-1.2 1.986L.005 8.3l.08 4.39 1.122 2.093 2.103 1.142 2.29.07 2.097-.04.053-7.94L7.716.063l-2.03-.06-2.26.05h-.001m3 14.665l-1.35-.016-1.623-.083-1.354-.782-.726-1.385-.004-8.907.603-1.239 1.113-.811 2.058-.2 1.282-.003v13.426h.001M9.34 8.005L9.363.023 10.831 0l1.743.05 2.212 1.128 1.161 2.199.053 4.61-.123 4.976-.08.242-1.315 1.877-2.111.89-2.978.013-.053-7.979m4.675.269L12.902 7.24l-1.183.15-.755.923-.014.935.755.943 1.197.164 1.11-1.028.003-1.053M3.71 3.317l-.695.348-.494 1.232.136.544.712.715.567.133.53-.06.831-.65.199-1.006-.633-1.01-1.153-.246"/></svg>
