<svg xmlns="http://www.w3.org/2000/svg" width="16" height="16"><path d="M.682 3.349h6.822l.682.682v6.822l-.199.483-.483.199H.682l-.483-.199L0 10.853V4.03l.682-.682v.001m5.206 2.596v-.72h-3.59v.72h1.357V9.66h.87V5.945h1.363m3.298-1.148l1.504-.939.46-1.712-.831-1.566L8.643 0 7.022.718l-.696 1.631h1.178l1.189.493.493 1.189v.766m-4.295 7.738h2.613l1.189-.493.493-1.189V5.58h2.783l.682.716v4.294l-1.158 2.993-2.935 1.3-2.19-.68-1.477-1.67v.002m10.737-9.372l-.837 1.45h-1.675l-.837-1.45.49-1.184 1.184-.49 1.184.49.49 1.184m-2.238 9.488l-.12-.002.381-2.07V6.306l-.15-.725h1.792l.707.707v3.765l-.761 1.836-1.837.761h-.012"/></svg>
