<svg xmlns="http://www.w3.org/2000/svg" width="16" height="16"><path d="M0 6.826l.543 2.04 1.458 1.616.143.439-.161.6-.1.373-.032.14.056.137.137.056.111-.029 1.268-.733.308-.088.171.025 1.625.26-.177-1.251.483-2.023L7.122 6.8l4.052-1.409.15.002L9.257 2.96 5.796 2l-2.256.379-1.842 1.034L.456 4.947 0 6.826m4.632-1.555l-.385.667h-.77l-.385-.667.385-.667h.77l.385.667m3.875 0l-.385.667h-.77l-.385-.667.385-.667h.77l.385.667m2.669 9.158l-3.412-1.177-1.414-2.841 1.413-2.842 3.411-1.178 3.412 1.178L16 10.411l-.452 1.696-1.214 1.34-.12.366.218.81.029.117-.162.162-.092-.03-1.057-.61-.256-.074-.142.021-1.576.22M9.064 9.542l.78.248.399-.716-.622-.533-.457.189-.189.458.09.353h-.001m3.232.001l.782.245.393-.719-.629-.526-.644.644.098.356"/></svg>
