<svg xmlns="http://www.w3.org/2000/svg" width="16" height="16"><path d="M13.601 2.326A7.85 7.85 0 0 0 7.994 0C1.778 0-1.825 6.754 1.121 11.891L0 16l4.204-1.102a7.9 7.9 0 0 0 3.79.965c6.327 0 11.019-8.151 5.606-13.537zM7.994 14.521c-1.314.035-2.471-.453-3.596-1.064l-2.494.654.666-2.433c-2.846-4.122-.094-10.34 5.428-10.34 3.628-.007 6.596 2.963 6.588 6.591-.004 3.639-2.961 6.592-6.592 6.592m2.262-5.58c-.528-.067-.745.482-1.072.874-.321.375-1.642-.595-2.022-.935-.59-.525-.886-1.274-1.004-1.471-.254-.441.758-.741.468-1.327-.182-.932-1.18-2.462-1.966-1.57-1.198 1.303-.63 2.707.119 3.703 4.25 5.768 7.971 2.868 7.21 1.604"/></svg>
