<svg xmlns="http://www.w3.org/2000/svg" width="16" height="16"><path d="M4.188 10.095l1.022-.367.263-.938-.991-.706-1.213-.413-1.165-.433-1.197-.19-.661.61-.17.95.171 1.774.873.359.993-.167 2.074-.479h0m8.219-3.911l-.542-.794-.704-.61-.902.231-.72.672-2.033 2.167.011.947.923.319 3.84-.96.487-.663m-6.061.031l.412-3.904.027-2.293-.24-.883L5.679.013 3.863.379 2.414 1.507l.732 2.013 2.29 3.9.597.388.674-.285h0m-.276 3.161l-1.03-.09-.737.771-1.929 2.914.295.823.846.378 1.001.368 1.021.06.498-.708.099-.916.084-3.04-.148-.56h0m5.783 1.362l-3.407-1.952-.594-.199-.518.281-.335.438.147.572 1.853 3.339.891.366.892-.499 1.206-1.46-.135-.887"/></svg>
