<svg xmlns="http://www.w3.org/2000/svg" width="16" height="16"><path d="M8.051 1.999h.089l6.11.335.897.521.518.899.22 1.402.01.104.022.26.008.104.074 1.957v.075l-.082 2.06-.008.105-.009.104-.235 1.558-.518.899-.897.521-6.18.335h-.142l-2.927-.052-.17-.006-.087-.004-.171-.007-.171-.007-2.654-.26-.897-.521-.518-.898-.235-1.558L.09 9.82.082 9.716 0 7.68v-.123l.064-1.778.007-.103.003-.052.008-.104.022-.26.01-.104.22-1.402.518-.899.897-.521 2.654-.26.17-.007.172-.006.086-.003.171-.007L7.858 2l.193-.001M6.4 5.209v4.818l4.157-2.408L6.4 5.209"/></svg>
